<svg version="1.1" id="Layer_1" xmlns="http://www.w3.org/2000/svg" xmlns:xlink="http://www.w3.org/1999/xlink" x="0px" y="0px" viewBox="0 0 100 100" style="enable-background:new 0 0 512 512;" xml:space="preserve" width="100" height="100"><path style="fill:#BDFBFD;" cx="256" cy="256" r="256" d="M100 50A50 50 0 0 1 50 100A50 50 0 0 1 0 50A50 50 0 0 1 100 50z"/><path style="fill:#00E4ED;" d="M53.729 99.861c24.641 -1.817 44.316 -21.492 46.133 -46.133L74.062 27.929l-0.732 6.443l-16.246 -16.246l-22.684 19.864L18.855 40.197l21.61 21.61l-14.527 10.263L53.729 99.861z"/><path style="fill:#324A5E;" d="M74.791 50c0 -1.978 -0.239 -3.9 -0.676 -5.744l7.03 -4.059l-7.083 -12.268l-7.036 4.062c-2.784 -2.632 -6.174 -4.627 -9.944 -5.749V18.127h-14.166v8.116c-3.769 1.122 -7.16 3.116 -9.943 5.749l-7.035 -4.062L18.855 40.197l7.03 4.059c-0.438 1.844 -0.676 3.766 -0.676 5.744c0 1.978 0.239 3.9 0.676 5.744L18.855 59.803l7.083 12.268l7.035 -4.062c2.784 2.632 6.174 4.627 9.943 5.749v8.116h14.166v-8.116c3.769 -1.122 7.16 -3.116 9.944 -5.749l7.036 4.062l7.083 -12.268l-7.03 -4.059C74.552 53.9 74.791 51.978 74.791 50zM50 60.625c-5.868 0 -10.625 -4.757 -10.625 -10.625s4.757 -10.625 10.625 -10.625s10.625 4.757 10.625 10.625S55.868 60.625 50 60.625z"/><path style="fill:#2B3B4E;" d="M74.791 50c0 -1.978 -0.239 -3.9 -0.676 -5.744l7.03 -4.059l-7.083 -12.268l-7.036 4.062c-2.784 -2.632 -6.174 -4.627 -9.943 -5.749V18.126h-7.195v21.252c0.037 0 0.075 -0.003 0.112 -0.003c5.868 0 10.625 4.757 10.625 10.625S55.868 60.625 50 60.625c-0.038 0 -0.075 -0.002 -0.112 -0.003v21.252h7.195v-8.116c3.769 -1.122 7.16 -3.116 9.943 -5.749l7.036 4.062l7.083 -12.268l-7.03 -4.059C74.552 53.9 74.791 51.978 74.791 50z"/><path style="fill:#FFD15D;" d="M50 35.485c-8.016 0 -14.515 6.499 -14.515 14.515c0 8.016 6.499 14.515 14.515 14.515c8.016 0 14.515 -6.499 14.515 -14.515S58.016 35.485 50 35.485zM50 62.605c-6.962 0 -12.605 -5.643 -12.605 -12.605s5.644 -12.605 12.605 -12.605s12.605 5.643 12.605 12.605S56.961 62.605 50 62.605z"/><path style="fill:#F4A200;" d="M50 35.485c-0.038 0 -0.075 0.003 -0.112 0.003v1.91c0.037 0 0.075 -0.003 0.112 -0.003c6.962 0 12.605 5.643 12.605 12.605s-5.643 12.605 -12.605 12.605c-0.038 0 -0.075 -0.002 -0.112 -0.003v1.91c0.038 0 0.075 0.003 0.112 0.003c8.016 0 14.515 -6.499 14.515 -14.515S58.016 35.485 50 35.485z"/></svg>